<?xml version="1.0" encoding="utf-8"?>
<svg viewBox="0 0 307.99 327.81" style="fill: red;" xmlns="http://www.w3.org/2000/svg">
  <defs>
    <clipPath id="clip-path" transform="translate(-14 -16.1)">
      <rect class="cls-1" x="16.7" y="17.9" width="302.6" height="324.21"/>
    </clipPath>
    <style>.cls-1{fill:none;}.cls-2{clip-path:url(#clip-path);}.cls-3,.cls-4{fill:#00b0f0;fill-rule:evenodd;}.cls-3{stroke:#00b0f0;stroke-linecap:round;stroke-linejoin:round;stroke-width:9px;}.cls-4{fill-opacity:0.5;}</style>
  </defs>
  <g class="cls-2" transform="matrix(1, 0, 0, 1, 0, 3.552713678800501e-15)">
    <path class="cls-3" d="M185.23,333c-10.79-9.12-9.18-25.66-8.83-39.76.17-6-1.57-13.85-7.57-14.59-6.84-.83-10,8.33-9.79,15.24.3,13.41,2.65,29-7.1,38.29-7.22,6.9-18.36,7.25-28.41,7.12q-24.79-.27-49.56-.48c-12.75-.13-27.41-1.22-34.94-11.46-8.83-12.07-2.65-30.17-10.13-43.07-2.83-4.9-7.49-8.72-9.49-14-3.35-8.77,3-19.8,12.27-21.36a146.83,146.83,0,0,1-7.57-63.47c1.09-11,3.48-21.79,5.83-32.56,1.57-7.29,3.18-14.67,6.31-21.44,3.31-7.12-.22-15.28-2.39-22.84a64,64,0,0,1-.31-34.25c1.26-4.78,5.35-10.46,9.83-8.42A85.86,85.86,0,0,1,83.24,24.25c8.14-4.08,19.71-6.08,25.06,1.3C120.88,43,141.63,52.68,162.39,58.24S204.77,66,225.3,72.31s40.82,17.58,51.52,36.2c3,5.21,5.22,10.9,9.09,15.46,3.09,3.64,7.1,6.33,10.53,9.63,13.14,12.72,16.41,32.43,16.36,50.71a196.6,196.6,0,0,1-10.7,63.6c9,5.12,18.54,14.8,14.4,24.31-1.82,4.13-5.78,6.82-8.53,10.42-9.35,12.33-1.78,31.78-10.7,44.5-7.27,10.33-21.93,11.5-34.63,11.63-16.58.22-33.16.39-49.78.61-9.66.13-20.28-.09-27.63-6.34M310,181.4c-.31-16.32-3.09-33.82-14.58-45.45-4.61-4.69-10.49-8.21-14.49-13.46-3.48-4.51-5.35-10-8.05-15.06-9.22-16.89-27.67-26.88-46.25-32.09s-38-6.59-56.65-11.59a153.92,153.92,0,0,1-68.27-38.94c-2.13-2.13-5.61-1.65-8.53-.82C69.62,30.72,50.26,50.47,44,74.13a4.46,4.46,0,0,1-1.35-4.91c-1.61-2-4.57.78-5.4,3.22A58.94,58.94,0,0,0,37.21,111c2.13,6.25,5.35,13.28,2.17,19.1-1.87,3.43-2.78,7.29-3.7,11.07C28,173.33,21.19,207.45,31.11,239a16.36,16.36,0,0,0,2.61,5.55c5.1,6.43,16.23,3.09,20.72-3.82s4.78-15.5,6.61-23.48c5.13-22.58,23.76-40.72,45.6-48.45,7.27-2.52,15.75-4.82,19-11.77,20.45,2.39,41.07,1.05,61.61,2s41.64,4.25,59.18,15,30.89,30,29.67,50.54c-.3,5.08-1.35,10.55,1.18,14.93,3.17,5.51,10.44,6.82,16.79,7.51,1.65.17,3.44.35,4.92-.43,1.87-1,2.65-3.3,3.26-5.39A208.16,208.16,0,0,0,310,181.4m-205.64-8.9c-22.8,8.51-40.07,30.22-43.2,54.27-.74,5.73-.74,11.63-2.27,17.19q108.87-4.43,217.91-.17c-5.44-6.86-3.4-16.68-3.75-25.4-.82-19.88-16-37-34-45.63s-38.42-10.29-58.35-11.15c-15-.66-30-.92-44.94-1.22-3.79,0-8,0-10.71,2.6-5.57,5.21-13.53,6.86-20.71,9.51m51.91,120.56c.05-7.16,2.83-15.89,9.92-17,5.62-.91,10.79,4,12.45,9.47s.82,11.24.34,16.93c-1,11.59,1,25.31,11.23,30.95,5.18,2.86,11.4,2.91,17.32,2.91q28.65-.07,57.34-.09c5.84,0,11.8,0,17.28-1.91a27.12,27.12,0,0,0,17.66-20.79c1.57-9.34-1.78-19.71,2.83-28,3.05-5.43,9.14-9,11.1-14.94,2.26-6.94-2.35-14.67-8.7-18.41s-13.93-4.29-21.28-4.77c-57.17-3.56-114.57-3-171.87-2.43-24.54.26-49.25.52-73.36,5.21-7.66,1.52-16.71,5-17.79,12.72-1.09,8,7.26,13.76,11.31,20.79,7.31,12.72.48,30.65,9.31,42.37,7,9.34,20.54,10.2,32.24,10.2q27.61,0,55.17.05c6.53,0,13.53-.13,18.93-3.82,5.83-4,8.44-11.29,9-18.32s-.57-14.07-.48-21.1" transform="translate(-14 -16.1)" style="paint-order: stroke; fill: rgb(245, 245, 245); fill-rule: evenodd; stroke: rgb(236, 237, 244); stroke-width: 5px;"/>
  </g>
</svg>